<svg xmlns="http://www.w3.org/2000/svg" viewBox="0 0 413.32 467.07"><defs><style>.cls-1{fill:#ff5bbf;}.cls-2{fill:#ff7dbf;}.cls-3{fill:#fffb81;}.cls-4{fill:#81ff97;}.cls-5{fill:#a076ff;}.cls-6{fill:#f40097;}.cls-7{fill:#26ffb6;}.cls-8{fill:#3b53ff;}.cls-9{fill:#ff8976;}.cls-10{fill:#f91fff;}.cls-11{fill:#42ff6e;}.cls-12{fill:#7dffa2;}.cls-13{fill:#5200c7;}</style></defs><g id="Layer_2" data-name="Layer 2"><g id="Layer_2-2" data-name="Layer 2"><rect class="cls-1" x="16.47" y="432.45" width="41.18" height="17.5" transform="translate(-326.93 189.13) rotate(-50.49)"/><rect class="cls-2" x="55.28" y="233.98" width="121.4" height="229.52" rx="21.67" transform="translate(248.35 5.88) rotate(39.51)"/><path class="cls-3" d="M148.29,221.93A6.13,6.13,0,0,1,144.47,211c.13-.1,12.22-9.84,25.91-30,12.63-18.57,29.24-50.07,36.69-94.65a6.14,6.14,0,1,1,12.11,2c-15.1,90.27-65,130.57-67.09,132.24A6.1,6.1,0,0,1,148.29,221.93Z"/><path class="cls-4" d="M255.87,303.16a8.55,8.55,0,0,1-3.11-.6,8.42,8.42,0,0,1-4.71-10.94c23.83-60,57.9-100.73,82.29-124.39,26.59-25.8,47.48-37.29,48.35-37.77a8.43,8.43,0,0,1,8.06,14.8c-.32.18-20.22,11.23-45.17,35.54-23,22.45-55.26,61.15-77.88,118A8.43,8.43,0,0,1,255.87,303.16Z"/><path class="cls-5" d="M235.17,174.72a8.3,8.3,0,0,1-3.11-.6,8.42,8.42,0,0,1-4.72-10.94c23.84-59.95,57.91-100.73,82.29-124.38C336.23,13,357.11,1.5,358,1a8.42,8.42,0,1,1,8.06,14.79h0c-.2.11-20.14,11.15-45.17,35.54C297.83,73.81,265.62,112.52,243,169.41A8.43,8.43,0,0,1,235.17,174.72Z"/><circle class="cls-6" cx="48.57" cy="99.14" r="16.67"/><circle class="cls-7" cx="335.96" cy="387.92" r="16.67"/><circle class="cls-8" cx="229.79" cy="36.87" r="16.67"/><path class="cls-9" d="M46.4,210.68c-12.67-5.11-20.31,16.21-20.31,16.21S5.35,217.82.37,230.55,41.64,262.9,41.64,262.9,59.07,215.79,46.4,210.68Z"/><path class="cls-10" d="M278,294.86c-13.34,2.95-7.59,24.85-7.59,24.85S248.2,324,251.3,337.27s52.33,3.35,52.33,3.35S291.36,291.91,278,294.86Z"/><path class="cls-11" d="M335.7,141.32C338.6,128,316.31,124,316.31,124s5.44-22-7.95-24.73-24.93,46.12-24.93,46.12S332.8,154.67,335.7,141.32Z"/><rect class="cls-12" x="98.83" y="106.72" width="34.3" height="34.3" transform="translate(-43.46 65.78) rotate(-26.86)"/><rect class="cls-13" x="373.12" y="58.94" width="34.3" height="34.3" transform="translate(7.73 184.56) rotate(-26.86)"/><rect class="cls-1" x="8.44" y="390" width="120.7" height="33.67" transform="translate(274.53 49.18) rotate(39.51)"/><rect class="cls-1" x="37.07" y="354.41" width="120.7" height="33.67" transform="translate(258.43 22.83) rotate(39.51)"/><rect class="cls-1" x="68.83" y="316.76" width="120.7" height="33.67" transform="translate(241.73 -5.97) rotate(39.51)"/><rect class="cls-1" x="100.87" y="277.89" width="120.7" height="33.67" transform="translate(224.32 -35.24) rotate(39.51)"/></g></g></svg>